<svg id="Layer_2" data-name="Layer 2" xmlns="http://www.w3.org/2000/svg" width="40" height="40" viewBox="0 0 40 40">
  <title>behance</title>
  <g>
    <path d="M4165.66,2926h-4.51v4.36h4.28c0.64,0,1.86-.21,1.86-2.12C4167.29,2926,4165.66,2926,4165.66,2926Z" transform="translate(-4149.91 -2905.43)" style="fill: #231f20"/>
    <path d="M4166.75,2921.58c0-1.7-1.09-1.7-1.09-1.7h-4.51v3.65h4.23C4166.11,2923.53,4166.75,2923.28,4166.75,2921.58Z" transform="translate(-4149.91 -2905.43)" style="fill: #231f20"/>
    <path d="M4177.21,2923.53a2.85,2.85,0,0,0-2.73,2.51h5.09A2.39,2.39,0,0,0,4177.21,2923.53Z" transform="translate(-4149.91 -2905.43)" style="fill: #231f20"/>
    <path d="M4149.91,2905.43v40h40v-40h-40Zm23.9,12.51h6.4v1.54h-6.4v-1.54Zm-3.23,10.55c0,5-4.92,5.15-4.92,5.15h-7.87V2917h7.87a4.06,4.06,0,0,1,4.39,4.35c0,2.91-2.36,3.1-2.36,3.1C4170.8,2924.43,4170.58,2928.49,4170.58,2928.49Zm12-.28h-8a2.57,2.57,0,0,0,2.73,2.85c2.57,0,2.48-1.76,2.48-1.76h2.73c0,4.66-5.3,4.34-5.3,4.34-6.37,0-6-6.24-6-6.24s0-6.27,6-6.27C4183.43,2921.13,4182.55,2928.21,4182.55,2928.21Z" transform="translate(-4149.91 -2905.43)" style="fill: #231f20"/>
  </g>
</svg>
