<svg id="Layer_2" data-name="Layer 2" xmlns="http://www.w3.org/2000/svg" width="40" height="40" viewBox="0 0 40 40">
  <title>behance_y</title>
  <g>
    <path d="M7592.36,6190.54h-4.51v4.36h4.28c0.64,0,1.86-.22,1.86-2.12C7594,6190.51,7592.36,6190.54,7592.36,6190.54Z" transform="translate(-7576.61 -6169.93)" style="fill: #ffd600"/>
    <path d="M7593.45,6186.07c0-1.7-1.09-1.7-1.09-1.7h-4.51V6188h4.23C7592.81,6188,7593.45,6187.78,7593.45,6186.07Z" transform="translate(-7576.61 -6169.93)" style="fill: #ffd600"/>
    <path d="M7603.91,6188a2.85,2.85,0,0,0-2.73,2.51h5.09A2.39,2.39,0,0,0,7603.91,6188Z" transform="translate(-7576.61 -6169.93)" style="fill: #ffd600"/>
    <path d="M7576.61,6169.93v40h40v-40h-40Zm23.9,12.51h6.4V6184h-6.4v-1.54Zm-3.23,10.55c0,5-4.92,5.15-4.92,5.15h-7.87v-16.66h7.88a4.05,4.05,0,0,1,4.39,4.35c0,2.91-2.36,3.1-2.36,3.1C7597.5,6188.93,7597.28,6193,7597.28,6193Zm12-.28h-8a2.57,2.57,0,0,0,2.73,2.84c2.57,0,2.49-1.76,2.49-1.76h2.73c0,4.66-5.31,4.34-5.31,4.34-6.37,0-6-6.24-6-6.24s0-6.27,6-6.27C7610.12,6185.63,7609.24,6192.71,7609.24,6192.71Z" transform="translate(-7576.61 -6169.93)" style="fill: #ffd600"/>
  </g>
</svg>
