<svg id="Layer_2" data-name="Layer 2" xmlns="http://www.w3.org/2000/svg" width="40" height="40" viewBox="0 0 40 40">
  <title>vimeo_y</title>
  <path d="M7576.61,6109.93v40h40v-40h-40Zm25.54,20.9c-1.84,3.5-5.12,5.93-6.68,5.81s-2.4-3.29-3-6.06-1.16-3.19-1.46-3.33a6.4,6.4,0,0,0-1.52.35,2.15,2.15,0,0,1-.77-0.71s3.37-3.37,5.14-3.29c1.49,0.07,1.93,4,1.93,4s0.42,4.64,1.73,4.25c1.67-.5,2.48-3.87,2-4.71-0.34-.59-1.77-0.46-1.77-0.46s1-2.39,2.67-3.08c1.11-.45,3.23-0.73,3.85.65S7604,6127.33,7602.15,6130.83Z" transform="translate(-7576.61 -6109.93)" style="fill: #ffd600"/>
</svg>
