<svg id="Layer_2" data-name="Layer 2" xmlns="http://www.w3.org/2000/svg" width="614.92" height="50" viewBox="0 0 614.92 50">
  <title>inkpixel_logo</title>
  <g>
    <path d="M2910.27,4896.39a17.63,17.63,0,0,0-5.31-3.95,15.19,15.19,0,0,0-6.78-1.51h-21.55v50h13.73v-15.36h8.17a15.66,15.66,0,0,0,6.73-1.43,16.21,16.21,0,0,0,5.22-3.9,18.19,18.19,0,0,0,4.54-12,16.68,16.68,0,0,0-1.27-6.32A18.57,18.57,0,0,0,2910.27,4896.39Zm-10.3,16.06a3.22,3.22,0,0,1-2.36,1.16h-7.26v-10.71h6.91a3.83,3.83,0,0,1,2.53,1.14c0.86,0.74,1.28,2.16,1.28,4.23S2900.69,4911.67,2900,4912.44Z" transform="translate(-2627.4 -4890.93)" style="fill: #ffd600"/>
    <polygon points="431.21 0 422.13 15.76 413.05 0 398.17 0 414.88 25.35 398.75 50 413.6 50 422.13 34.93 430.66 50 445.44 50 429.31 25.35 446.02 0 431.21 0" style="fill: #ffd600"/>
    <polygon points="508.17 30.14 526.34 30.14 526.34 19.01 508.17 19.01 508.17 11.96 529.45 11.96 529.45 0 494.44 0 494.44 50 530.08 50 530.08 38.02 508.17 38.02 508.17 30.14" style="fill: #ffd600"/>
    <polygon points="592.23 38.02 592.23 0 578.48 0 578.48 50 614.92 50 614.92 38.02 592.23 38.02" style="fill: #ffd600"/>
    <rect x="336.02" width="13.74" height="13.73" style="fill: #ffd600"/>
    <path d="M2720.33,4916.34l-20.06-25.42h-10.71v50h13.74v-24.58l19.86,24.58h10.92v-50h-13.75v25.42Zm2,0v-23.41h9.71v46h-7.95l-19.25-23.83-3.59-4.43v28.27h-9.7v-46h7.72l19.46,24.67,3.6,4.55v-5.81Z" transform="translate(-2627.4 -4890.93)" style="fill: #ffd600"/>
    <path d="M2827,4890.93h-15.51l-15.21,19v-19H2782.5v50h13.72v-14.44l3.81-3.95,12.39,18.38h15.78l-19.42-27.61Zm-2.64,48h-10.82l-11.79-17.49-1.39-2.07-1.73,1.8-3.81,3.94-0.58.57v13.24h-9.7v-46h9.7v22.76l3.59-4.49,14.62-18.28h10.29l-15.51,19.12-1,1.17,0.87,1.25Z" transform="translate(-2627.4 -4890.93)" style="fill: #ffd600"/>
    <path d="M2627.4,4940.93l13.74-13.72V4891l-13.74,13.73v36.24Zm2-35.4,9.7-9.71v30.55l-9.7,9.69v-30.53Z" transform="translate(-2627.4 -4890.93)" style="fill: #ffd600"/>
  </g>
</svg>
