<svg data-name="Layer 2" xmlns="http://www.w3.org/2000/svg" width="614.92" height="50" viewBox="0 0 614.92 50"><title>inkpixel_logo</title><g fill="#ffd600"><path d="M282.87 5.46a17.63 17.63 0 0 0-5.31-3.95A15.19 15.19 0 0 0 270.78 0h-21.55v50h13.73V34.64h8.17a15.66 15.66 0 0 0 6.73-1.43 16.21 16.21 0 0 0 5.22-3.9 18.19 18.19 0 0 0 4.54-12 16.68 16.68 0 0 0-1.27-6.32 18.57 18.57 0 0 0-3.48-5.53zm-10.3 16.06a3.22 3.22 0 0 1-2.36 1.16h-7.26V11.97h6.91a3.83 3.83 0 0 1 2.53 1.14c.86.74 1.28 2.16 1.28 4.23s-.38 3.4-1.07 4.17zM431.21 0l-9.08 15.76L413.05 0h-14.88l16.71 25.35L398.75 50h14.85l8.53-15.07L430.66 50h14.78l-16.13-24.65L446.02 0h-14.81zM508.17 30.14h18.17V19.01h-18.17v-7.05h21.28V0h-35.01v50h35.64V38.02h-21.91v-7.88zM592.23 38.02V0h-13.75v50h36.44V38.02h-22.69zM336.02 0h13.74v13.73h-13.74zM92.93 25.41L72.87-.01H62.16v50H75.9V25.41l19.86 24.58h10.92v-50H92.93v25.42zm2 0V2h9.71v46h-7.95L77.44 24.17l-3.59-4.43v28.27h-9.7v-46h7.72l19.46 24.67 3.6 4.55v-5.81zM199.6 0h-15.51l-15.21 19V0H155.1v50h13.72V35.56l3.81-3.95 12.39 18.38h15.78l-19.42-27.61zm-2.64 48h-10.82l-11.79-17.49-1.39-2.07-1.73 1.8-3.81 3.94-.58.57v13.24h-9.7v-46h9.7v22.76l3.59-4.49 14.62-18.28h10.29L179.83 21.1l-1 1.17.87 1.25zM0 50l13.74-13.72V.07L0 13.8v36.24zm2-35.4l9.7-9.71v30.55L2 45.13V14.6z"/></g></svg>